# xmcd
#
# Track frame offsets:
#	150
#	21974
#	42439
#	63990
#	80820
#	102118
#
# Disc length: 1571 seconds
#
# Revision: 1
# Processed by: cddbd v1.4PL0 Copyright (c) Steve Scherf et al.
# Submitted via: audiograbber 1.80.04
#
DISCID=49062106
DTITLE=Tyley Ross - Treading Water
DYEAR=1997
DGENRE=Ballad
TTITLE0=Treading Water
TTITLE1=I Had My Palm Read
TTITLE2=You Take My Breath Away
TTITLE3=I'll Take The Town
TTITLE4=Midnight Moon
TTITLE5=Heroes
EXTD=
EXTT0=
EXTT1=
EXTT2=
EXTT3=
EXTT4=
EXTT5=
PLAYORDER=
